# xmcd
#
# Track frame offsets:
#	183
#	7620
#	17690
#	28030
#	39478
#	50878
#	62110
#	73545
#	83413
#	97683
#	113503
#	126768
#	142068
#	152720
#	168120
#	180793
#	193865
#	220013
#	237038
#	256048
#	274513
#	291565
#	306338
#	327523
#
# Disc length: 4507 seconds
#
# Revision: 0
# Processed by: cddbd v1.5.1PL2 Copyright (c) Steve Scherf et al.
# Submitted via: EasyCDDAExtractor 4.6.0.1
#
DISCID=3c119918
DTITLE=Grupo de Guitarras e Cantares de Coimbra - Guitarra- Do principio do sé
DTITLE=culo até aos anos 80 Disco 3
DYEAR=1900
DGENRE=
TTITLE0=Indicativos
TTITLE1=Fado Hilário
TTITLE2=Valsa Triste
TTITLE3=Balada Do Mondego
TTITLE4=Bailados Do Minho
TTITLE5=Valsa Em Fá
TTITLE6=Valsa Em Sol
TTITLE7=Variações Em Ré Menor
TTITLE8=Rapsódia De Canções
TTITLE9=Variações Em Lá Menor
TTITLE10=Variações Em Lá Maior
TTITLE11=Balada De Coimbra
TTITLE12=Variações Sobre Um Tema Em Fá
TTITLE13=Aguarela Portuguesa
TTITLE14=Raiz
TTITLE15=Melodia Nº 2
TTITLE16=Variações Em Mi Menor
TTITLE17=Passatempo
TTITLE18=Valsa Para Um Tempo Que Passou
TTITLE19=Variações Em Ré Menor
TTITLE20=Variações Lá Maior
TTITLE21=Romance Do Mondego
TTITLE22=Variações Em Lá Menor Nº 2
TTITLE23=Dueto Concertante
EXTD=
EXTT0=
EXTT1=
EXTT2=
EXTT3=
EXTT4=
EXTT5=
EXTT6=
EXTT7=
EXTT8=
EXTT9=
EXTT10=
EXTT11=
EXTT12=
EXTT13=
EXTT14=
EXTT15=
EXTT16=
EXTT17=
EXTT18=
EXTT19=
EXTT20=
EXTT21=
EXTT22=
EXTT23=
PLAYORDER=
